<?xml version="1.0" encoding="UTF-8" standalone="no"?>
<!DOCTYPE svg PUBLIC "-//W3C//DTD SVG 1.1//EN"
 "http://www.w3.org/Graphics/SVG/1.1/DTD/svg11.dtd">
<!-- Generated by graphviz version 2.47.0 (20210316.0004)
 -->
<!-- Title: dependencies Pages: 1 -->
<svg width="504pt" height="287pt"
 viewBox="0.00 0.00 504.00 287.00" xmlns="http://www.w3.org/2000/svg" xmlns:xlink="http://www.w3.org/1999/xlink">
<g id="graph0" class="graph" transform="scale(1 1) rotate(0) translate(4 283)">
<title>dependencies</title>
<polygon fill="white" stroke="transparent" points="-4,4 -4,-283 500,-283 500,4 -4,4"/>
<text text-anchor="start" x="227.01" y="-42.4" font-family="Times-12" font-weight="bold" font-size="14.00">Legend</text>
<polygon fill="#ffffb3" stroke="transparent" points="14,-10 14,-30 34,-30 34,-10 14,-10"/>
<text text-anchor="start" x="37.63" y="-15.4" font-family="Times-12" font-size="14.00"> &#160;Declarations</text>
<polygon fill="#8dd3c7" stroke="transparent" points="127,-10 127,-30 147,-30 147,-10 127,-10"/>
<text text-anchor="start" x="150.73" y="-15.4" font-family="Times-12" font-size="14.00"> &#160;Module</text>
<polygon fill="#80b1d3" stroke="transparent" points="213,-10 213,-30 233,-30 233,-10 213,-10"/>
<text text-anchor="start" x="236.78" y="-15.4" font-family="Times-12" font-size="14.00"> &#160;Bootstrap</text>
<polygon fill="#fdb462" stroke="transparent" points="310,-10 310,-30 330,-30 330,-10 310,-10"/>
<text text-anchor="start" x="333.67" y="-15.4" font-family="Times-12" font-size="14.00"> &#160;Providers</text>
<polygon fill="#fb8072" stroke="transparent" points="406,-10 406,-30 426,-30 426,-10 406,-10"/>
<text text-anchor="start" x="429.73" y="-15.4" font-family="Times-12" font-size="14.00"> &#160;Exports</text>
<g id="clust1" class="cluster">
<title>cluster_AppModule</title>
<polygon fill="none" stroke="black" stroke-dasharray="1,5" points="180,-146 180,-271 316,-271 316,-146 180,-146"/>
</g>
<g id="clust3" class="cluster">
<title>cluster_AppModule_imports</title>
<polygon fill="none" stroke="black" points="188,-154 188,-206 308,-206 308,-154 188,-154"/>
</g>
<g id="clust7" class="cluster">
<title>cluster_ParkingModule</title>
<polygon fill="none" stroke="black" stroke-dasharray="1,5" points="162,-70 162,-138 334,-138 334,-70 162,-70"/>
</g>
<g id="clust12" class="cluster">
<title>cluster_ParkingModule_providers</title>
<polygon fill="none" stroke="black" points="170,-78 170,-130 326,-130 326,-78 170,-78"/>
</g>
<!-- ParkingModule -->
<g id="node1" class="node">
<title>ParkingModule</title>
<polygon fill="#8dd3c7" stroke="black" points="299.6,-198 296.6,-202 275.6,-202 272.6,-198 196.4,-198 196.4,-162 299.6,-162 299.6,-198"/>
<text text-anchor="middle" x="248" y="-175.8" font-family="Times,serif" font-size="14.00">ParkingModule</text>
</g>
<!-- AppModule -->
<g id="node2" class="node">
<title>AppModule</title>
<polygon fill="#8dd3c7" stroke="black" points="289.66,-263 286.66,-267 265.66,-267 262.66,-263 206.34,-263 206.34,-227 289.66,-227 289.66,-263"/>
<text text-anchor="middle" x="248" y="-240.8" font-family="Times,serif" font-size="14.00">AppModule</text>
</g>
<!-- ParkingModule&#45;&gt;AppModule -->
<g id="edge1" class="edge">
<title>ParkingModule&#45;&gt;AppModule</title>
<path fill="none" stroke="black" d="M248,-198.11C248,-198.11 248,-216.99 248,-216.99"/>
<polygon fill="black" stroke="black" points="244.5,-216.99 248,-226.99 251.5,-216.99 244.5,-216.99"/>
</g>
<!-- ParkingService -->
<g id="node3" class="node">
<title>ParkingService</title>
<ellipse fill="#fdb462" stroke="black" cx="248" cy="-104" rx="70.06" ry="18"/>
<text text-anchor="middle" x="248" y="-99.8" font-family="Times,serif" font-size="14.00">ParkingService</text>
</g>
<!-- ParkingService&#45;&gt;ParkingModule -->
<g id="edge2" class="edge">
<title>ParkingService&#45;&gt;ParkingModule</title>
<path fill="none" stroke="black" d="M230.82,-121.63C230.82,-121.63 230.82,-151.94 230.82,-151.94"/>
<polygon fill="black" stroke="black" points="227.32,-151.94 230.82,-161.94 234.32,-151.94 227.32,-151.94"/>
</g>
<!-- ParkingService&#45;&gt;ParkingModule -->
<g id="edge3" class="edge">
<title>ParkingService&#45;&gt;ParkingModule</title>
<path fill="none" stroke="black" d="M265.18,-121.63C265.18,-121.63 265.18,-151.94 265.18,-151.94"/>
<polygon fill="black" stroke="black" points="261.68,-151.94 265.18,-161.94 268.68,-151.94 261.68,-151.94"/>
</g>
</g>
</svg>
